<svg width="48" height="49" fill="none" xmlns="http://www.w3.org/2000/svg"><g filter="url(#a)"><circle cx="24" cy="21" r="18" stroke="#C4C5C5" stroke-width="4" shape-rendering="crispEdges"/></g><path d="M7.124 10.429a20.095 20.095 0 0 1 8.149-7.602A19.775 19.775 0 0 1 26.167.787a19.862 19.862 0 0 1 10.296 4.147 20.26 20.26 0 0 1 6.54 9.063 20.517 20.517 0 0 1 .776 11.197 20.34 20.34 0 0 1-5.226 9.896 19.932 19.932 0 0 1-9.623 5.56c-3.66.897-7.497.73-11.069-.485l1.339-4.044c2.82.958 5.848 1.09 8.738.382a15.736 15.736 0 0 0 7.598-4.389 16.06 16.06 0 0 0 4.125-7.813c.621-2.946.409-6.01-.613-8.84a15.995 15.995 0 0 0-5.163-7.154 15.68 15.68 0 0 0-8.128-3.275c-2.96-.294-5.941.264-8.6 1.611a15.864 15.864 0 0 0-6.434 6.002l-3.6-2.216Z" fill="#5453E0"/><defs><filter id="a" x="0" y="1" width="48" height="48" filterUnits="userSpaceOnUse" color-interpolation-filters="sRGB"><feFlood flood-opacity="0" result="BackgroundImageFix"/><feColorMatrix in="SourceAlpha" values="0 0 0 0 0 0 0 0 0 0 0 0 0 0 0 0 0 0 127 0" result="hardAlpha"/><feOffset dy="4"/><feGaussianBlur stdDeviation="2"/><feComposite in2="hardAlpha" operator="out"/><feColorMatrix values="0 0 0 0 0 0 0 0 0 0 0 0 0 0 0 0 0 0 0.25 0"/><feBlend in2="BackgroundImageFix" result="effect1_dropShadow"/><feBlend in="SourceGraphic" in2="effect1_dropShadow" result="shape"/></filter></defs></svg>